<svg xmlns="http://www.w3.org/2000/svg" width="20" height="20" viewBox="0 0 20 20"><defs><style>.a,.b{fill:#de373a;}.a{opacity:0;}</style></defs><g transform="translate(0 0.359)"><rect class="a" width="20" height="20" transform="translate(20 19.641) rotate(180)"/><path class="b" d="M18.14,10.07a8.07,8.07,0,1,0-8.07,8.07A8.07,8.07,0,0,0,18.14,10.07Zm-1.67-.807H14.1a10.418,10.418,0,0,0-1.88-5.278A6.456,6.456,0,0,1,16.469,9.263ZM7.713,10.877h4.777a9.232,9.232,0,0,1-2.421,5.334,8.877,8.877,0,0,1-2.356-5.334Zm0-1.614A9.2,9.2,0,0,1,10.07,3.937a9.03,9.03,0,0,1,2.421,5.326ZM8,3.961a10.636,10.636,0,0,0-1.913,5.3H3.67A6.456,6.456,0,0,1,8,3.961ZM3.67,10.877H6.091a10.378,10.378,0,0,0,1.9,5.294A6.456,6.456,0,0,1,3.67,10.877Zm8.514,5.286A10.6,10.6,0,0,0,14.1,10.877h2.381A6.456,6.456,0,0,1,12.184,16.163Z" transform="translate(-0.07 -0.07)"/></g></svg>