<svg xmlns="http://www.w3.org/2000/svg" width="20" height="20" viewBox="0 0 20 20"><defs><style>.a{fill:none;}.b{fill:#de373a;}</style></defs><g transform="translate(0 0.013)"><rect class="a" width="20" height="20" transform="translate(0 -0.013)"/><path class="b" d="M16.545,15.618V13.291a3.641,3.641,0,0,1-2.836-2.836H6.291a3.641,3.641,0,0,1-2.836,2.836v2.327a3.641,3.641,0,0,1,2.836,2.836h7.418A3.641,3.641,0,0,1,16.545,15.618Zm0,1.506a2.188,2.188,0,0,0-1.331,1.331h.964a.366.366,0,0,0,.366-.367v-.964Zm-13.091,0v.964a.366.366,0,0,0,.366.367h.964A2.188,2.188,0,0,0,3.455,17.124Zm11.76-6.669a2.188,2.188,0,0,0,1.331,1.331v-.964a.366.366,0,0,0-.366-.367Zm-10.429,0H3.821a.366.366,0,0,0-.366.367v.964a2.188,2.188,0,0,0,1.331-1.33ZM2,10.821A1.82,1.82,0,0,1,3.821,9H16.179A1.82,1.82,0,0,1,18,10.821v7.267a1.82,1.82,0,0,1-1.821,1.821H3.821A1.82,1.82,0,0,1,2,18.088Zm8,6.543a2.909,2.909,0,1,1,2.909-2.909A2.909,2.909,0,0,1,10,17.364Zm0-1.455a1.455,1.455,0,1,0-1.455-1.455A1.455,1.455,0,0,0,10,15.909Z" transform="translate(0 -4.314)"/></g></svg>