<svg xmlns="http://www.w3.org/2000/svg" width="24" height="24" viewBox="0 0 24 24"><defs><style>.a,.b{fill:#49525b;}.a{opacity:0;}</style></defs><g transform="translate(-0.106)"><rect class="a" width="24" height="24" transform="translate(0.106)"/><path class="b" d="M18.26,3H5.74A2.74,2.74,0,0,0,3,5.74V18.26A2.74,2.74,0,0,0,5.74,21H18.26A2.74,2.74,0,0,0,21,18.26V5.74A2.74,2.74,0,0,0,18.26,3ZM7,11H5V9H7ZM5,13H7v2H5ZM9,5h6V19H9Zm10,6H17V9h2Zm-2,2h2v2H17Zm2-7.26V7H17V5h1.26a.74.74,0,0,1,.74.74ZM5.74,5H7V7H5V5.74A.74.74,0,0,1,5.74,5ZM5,18.26V17H7v2H5.74A.74.74,0,0,1,5,18.26Zm14,0a.74.74,0,0,1-.74.74H17V17h2Z"/></g></svg>