<svg xmlns="http://www.w3.org/2000/svg" width="24" height="24" viewBox="0 0 24 24"><defs><style>.a,.b{fill:#49525b;}.a{opacity:0;}</style></defs><g transform="translate(-0.348)"><rect class="a" width="24" height="24" transform="translate(0.348)"/><path class="b" d="M19,15V4a1.012,1.012,0,0,0-1.22-.98l-9,2A1,1,0,0,0,8,6v8.34a3.49,3.49,0,1,0,2,3.18A4.36,4.36,0,0,0,10,17V6.8l7-1.55v7.09a3.49,3.49,0,1,0,2,3.17A4.571,4.571,0,0,0,19,15ZM6.54,19A1.49,1.49,0,1,1,8,17.21a1.53,1.53,0,0,1,0,.3A1.49,1.49,0,0,1,6.54,19Zm9-2A1.5,1.5,0,1,1,17,15.21a1.53,1.53,0,0,1,0,.3A1.5,1.5,0,0,1,15.51,17Z"/></g></svg>