<svg id="Capa_1" enable-background="new 0 0 512 512" height="512" viewBox="0 0 512 512" width="512" xmlns="http://www.w3.org/2000/svg"><path d="m452 440.606h-2.391c-33.137 0-60-26.863-60-60v-174.582h102.391c11.046 0 20 8.954 20 20v154.582c0 33.137-26.863 60-60 60z" fill="#5e6b75"/><path d="m450.805 440.606c-33.797 0-61.195-27.398-61.195-61.195v-287.618c0-11.266-9.133-20.398-20.398-20.398h-348.814c-11.265-.001-20.398 9.132-20.398 20.398v287.617c0 33.797 27.398 61.195 61.195 61.195h389.61z" fill="#e4e4e4"/><path d="m389.61 379.41v-287.617c0-11.266-9.133-20.398-20.398-20.398h-174.407v369.211h256c-33.797 0-61.195-27.398-61.195-61.196z" fill="#b7b7bc"/><g fill="#5e6b75"><path d="m331 181h-272c-8.284 0-15-6.716-15-15s6.716-15 15-15h272c8.284 0 15 6.716 15 15s-6.716 15-15 15z"/><path d="m331 241h-152c-8.284 0-15-6.716-15-15s6.716-15 15-15h152c8.284 0 15 6.716 15 15s-6.716 15-15 15z"/><path d="m331 301h-152c-8.284 0-15-6.716-15-15s6.716-15 15-15h152c8.284 0 15 6.716 15 15s-6.716 15-15 15z"/><path d="m331 361h-272c-8.284 0-15-6.716-15-15s6.716-15 15-15h272c8.284 0 15 6.716 15 15s-6.716 15-15 15z"/><path d="m119 301h-60c-8.284 0-15-6.716-15-15v-60c0-8.284 6.716-15 15-15h60c8.284 0 15 6.716 15 15v60c0 8.284-6.716 15-15 15zm-45-30h30v-30h-30z"/></g><path d="m346 166c0-8.284-6.716-15-15-15h-136v30h136c8.284 0 15-6.716 15-15z" fill="#4f5961"/><path d="m331 241c8.284 0 15-6.716 15-15s-6.716-15-15-15h-136v30z" fill="#4f5961"/><path d="m195 301h136c8.284 0 15-6.716 15-15s-6.716-15-15-15h-136z" fill="#4f5961"/><path d="m331 361c8.284 0 15-6.716 15-15s-6.716-15-15-15h-136v30z" fill="#4f5961"/></svg>