<svg xmlns="http://www.w3.org/2000/svg" width="110.552" height="29.016" viewBox="0 0 110.552 29.016"><defs><style>.a,.b{fill:#fff;}.a{font-size:7px;font-family:Helvetica-Bold, Helvetica;font-weight:700;}</style></defs><text class="a" transform="translate(48.552 8)"><tspan x="0" y="0">ONBOARDING </tspan><tspan x="0" y="8">ENTERTAINMENT </tspan><tspan x="0" y="16">SOLUTION</tspan></text><path class="b" d="M5.977-27.843c0-2.026.892-2.8,2.31-2.8s2.31.77,2.31,2.8v15.319c0,2.026-.892,2.8-2.31,2.8s-2.31-.77-2.31-2.8ZM1.519-12.808c0,4.539,2.391,7.132,6.768,7.132s6.768-2.594,6.768-7.132V-27.56c0-4.539-2.391-7.132-6.768-7.132S1.519-32.1,1.519-27.56Zm20.87-17.507h7.7v-4.053H17.932V-6H30.089v-4.053h-7.7V-18.36h6.119v-4.053H22.389Zm9.888,2.756c0,3.242,1.175,5.592,4.9,8.875,2.918,2.553,3.809,4.093,3.809,6.16,0,2.026-.892,2.756-2.31,2.756s-2.31-.729-2.31-2.756v-2.026H32.156v1.743c0,4.539,2.269,7.132,6.646,7.132s6.646-2.594,6.646-7.132c0-3.242-1.175-5.592-4.9-8.875-2.918-2.553-3.809-4.093-3.809-6.16,0-2.026.811-2.8,2.229-2.8s2.229.77,2.229,2.8v1.175h4.215v-.892c0-4.539-2.229-7.132-6.565-7.132S32.278-32.1,32.278-27.56Z" transform="translate(-1.519 34.692)"/></svg>